<svg xmlns="http://www.w3.org/2000/svg" width="16" height="16" viewBox="0 0 16 16" fill="none">
  <path fill-rule="evenodd" clip-rule="evenodd" d="M5.86667 0.533333C5.86667 0.238782 6.10545 0 6.40001 0H8.00001H9.60001C9.89456 0 10.1333 0.238782 10.1333 0.533333C10.1333 0.827885 9.89456 1.06667 9.60001 1.06667H8.53334V2.2605C9.7049 2.35103 10.7936 2.7373 11.7248 3.34477C11.7457 3.31574 11.7692 3.28802 11.7952 3.26193L12.6486 2.4086C12.9089 2.14825 13.331 2.14825 13.5914 2.4086C13.8518 2.66895 13.8518 3.09105 13.5914 3.3514L12.7648 4.17794C14.0368 5.41787 14.8267 7.15002 14.8267 9.06664C14.8267 12.8369 11.7703 15.8933 8.00001 15.8933C4.22973 15.8933 1.17334 12.8369 1.17334 9.06664C1.17334 5.47586 3.94567 2.53259 7.46667 2.2605V1.06667H6.40001C6.10545 1.06667 5.86667 0.827885 5.86667 0.533333ZM2.24001 9.06664C2.24001 5.88548 4.81884 3.30665 8.00001 3.30665C11.1811 3.30665 13.76 5.88548 13.76 9.06664C13.76 12.2478 11.1811 14.8267 8.00001 14.8267C4.81884 14.8267 2.24001 12.2478 2.24001 9.06664ZM8.53334 4.8C8.53334 4.50545 8.29456 4.26667 8.00001 4.26667C7.70545 4.26667 7.46667 4.50545 7.46667 4.8V10.1333C7.46667 10.4279 7.70545 10.6667 8.00001 10.6667C8.29456 10.6667 8.53334 10.4279 8.53334 10.1333V4.8Z" fill="black"/>
</svg>